<svg width="34" height="42" viewBox="0 0 34 42" fill="none" xmlns="http://www.w3.org/2000/svg">
<path fill-rule="evenodd" clip-rule="evenodd" d="M21.1666 0.166504C22.2717 0.166504 23.3315 0.605491 24.1129 1.38689C24.8943 2.16829 25.3333 3.2281 25.3333 4.33317C25.3344 5.77299 25.8319 7.1684 26.7419 8.28414C27.652 9.39989 28.9189 10.1677 30.3292 10.4582C31.4121 10.6781 32.3634 11.3192 32.9736 12.2405C33.5839 13.1617 33.8032 14.2877 33.5833 15.3707C33.3634 16.4536 32.7223 17.4049 31.801 18.0152C30.8798 18.6254 29.7538 18.8447 28.6708 18.6248C27.5172 18.3901 26.3965 18.0158 25.3333 17.5103V29.3332C25.3332 31.6712 24.6774 33.9623 23.4404 35.9462C22.2034 37.9301 20.4348 39.5274 18.3355 40.5565C16.2362 41.5856 13.8903 42.0054 11.5644 41.768C9.23851 41.5307 7.02578 40.6458 5.17759 39.2139C3.3294 37.782 1.91985 35.8604 1.10905 33.6675C0.298248 31.4746 0.118707 29.0983 0.590819 26.8085C1.06293 24.5187 2.16777 22.4071 3.77983 20.7138C5.39189 19.0204 7.44655 17.8131 9.7104 17.229C10.7738 16.9726 11.8953 17.1445 12.833 17.7079C13.7706 18.2712 14.4492 19.1806 14.7221 20.2398C14.9951 21.2991 14.8405 22.4232 14.2919 23.3695C13.7432 24.3158 12.8444 25.0084 11.7896 25.2978C10.8128 25.5569 9.96343 26.1619 9.39918 27.0002C8.83493 27.8385 8.59422 28.8532 8.72178 29.8556C8.84935 30.858 9.33651 31.7801 10.0927 32.4503C10.849 33.1206 11.8228 33.4936 12.8333 33.4998C13.9384 33.4998 14.9982 33.0608 15.7796 32.2794C16.561 31.498 17 30.4382 17 29.3332V4.33317C17 3.2281 17.439 2.16829 18.2204 1.38689C19.0018 0.605491 20.0616 0.166504 21.1666 0.166504Z" fill="#333333"/>
</svg>
